<?xml version="1.0" standalone="no"?>
<!DOCTYPE svg PUBLIC "-//W3C//DTD SVG 20010904//EN"
 "http://www.w3.org/TR/2001/REC-SVG-20010904/DTD/svg10.dtd">
<svg version="1.0" xmlns="http://www.w3.org/2000/svg"
 width="260.000000pt" height="260.000000pt" viewBox="0 0 260.000000 260.000000"
 preserveAspectRatio="xMidYMid meet">
<metadata>
Created by potrace 1.11, written by Peter Selinger 2001-2013
</metadata>
<g transform="translate(0.000000,260.000000) scale(0.100000,-0.100000)"
fill="#000000" stroke="none">
<path d="M669 2543 c-46 -83 -48 -87 -254 -443 -104 -179 -215 -370 -247 -426
-32 -56 -58 -106 -58 -112 0 -6 8 -26 19 -44 28 -50 241 -417 262 -452 10 -17
24 -42 32 -56 7 -14 66 -116 130 -227 65 -112 127 -220 140 -242 12 -21 87
-151 166 -288 l144 -250 298 0 c165 0 299 3 299 6 0 4 -55 101 -121 216 -67
116 -132 229 -146 253 l-24 42 299 0 299 0 64 111 c35 61 73 128 85 148 12 20
81 140 154 266 73 127 140 244 150 260 10 17 47 81 82 143 l65 113 -139 242
c-77 133 -192 332 -256 442 -64 110 -122 211 -129 225 -8 14 -27 48 -43 75
l-28 50 -605 3 -605 2 -33 -57z m1081 -715 c80 -138 147 -255 148 -260 2 -4
-15 -41 -38 -81 -24 -39 -56 -97 -73 -127 -16 -30 -38 -66 -47 -80 -9 -14 -20
-32 -23 -40 -4 -8 -30 -55 -59 -105 l-53 -90 -280 -2 c-154 -1 -290 0 -301 3
-15 2 -37 31 -69 86 -26 46 -56 99 -67 118 -11 19 -56 97 -100 173 l-80 138
128 222 c70 122 137 239 148 259 l21 38 300 0 300 0 145 -252z"/>
<path d="M1045 1947 c-9 -15 -64 -109 -121 -208 l-103 -180 50 -87 c27 -48 54
-94 59 -102 5 -8 37 -63 70 -121 l61 -107 241 2 242 1 27 47 c15 25 38 66 52
90 13 23 54 94 91 156 36 62 66 116 66 120 0 4 -54 99 -119 212 l-118 205
-241 0 -241 0 -16 -28z"/>
<path d="M2187 2594 c-11 -12 3 -24 29 -24 23 0 24 -2 24 -74 0 -67 2 -75 19
-73 17 1 19 9 19 62 0 85 -1 83 29 87 14 2 28 9 31 16 3 9 -16 12 -70 12 -41
0 -78 -3 -81 -6z"/>
<path d="M2351 2538 c-2 -35 -4 -74 -5 -88 -1 -16 5 -26 17 -28 17 -4 20 7 20
96 -1 45 11 30 31 -40 13 -46 20 -56 36 -55 16 1 24 14 36 54 20 70 30 73 33
11 2 -57 6 -68 27 -68 11 0 13 15 8 82 -3 46 -8 86 -10 90 -3 5 -16 8 -29 8
-21 0 -27 -8 -41 -56 -9 -30 -19 -53 -22 -49 -4 4 -14 27 -23 53 -13 40 -20
47 -45 50 -29 3 -29 3 -33 -60z"/>
</g>
</svg>
